<svg width="64" height="40" viewBox="0 0 64 40" fill="none" xmlns="http://www.w3.org/2000/svg">
<g clip-path="url(#clip0_894_577)">
<path opacity="0.201" d="M20 40C31.0457 40 40 31.0457 40 20C40 8.9543 31.0457 0 20 0C8.9543 0 0 8.9543 0 20C0 31.0457 8.9543 40 20 40Z" fill="black"/>
<path d="M31.002 22.3581C33.919 22.3581 36.182 24.9511 35.764 27.8641C35.6426 28.6975 35.3054 29.4846 34.7858 30.1473C34.2662 30.8101 33.5823 31.3254 32.802 31.6421C31.9042 32.0057 30.9174 32.089 29.9714 31.8811C29.0254 31.6731 28.1645 31.1837 27.502 30.4771C26.314 29.2171 26.267 27.8641 26.239 27.8641C25.819 24.9401 28.096 22.3581 31.002 22.3581ZM53.002 22.3581C56.459 22.3581 58.8 25.9251 57.412 29.1021C56.9892 30.0704 56.2597 30.8728 55.3359 31.3856C54.4122 31.8985 53.3454 32.0933 52.3 31.9401C51.2752 31.7865 50.3271 31.3071 49.596 30.5728C48.8648 29.8386 48.3893 28.8885 48.24 27.8631C47.82 24.9481 50.086 22.3571 53.002 22.3571V22.3581ZM37.962 16.2751V17.7371C37.9618 17.9119 37.9971 18.0848 38.0658 18.2455C38.1344 18.4062 38.235 18.5513 38.3615 18.6719C38.4879 18.7925 38.6375 18.8862 38.8013 18.9473C38.965 19.0083 39.1394 19.0355 39.314 19.0271C40.007 18.9941 40.541 18.3961 40.541 17.7011V16.2751H48.841L61.897 16.9911C62.1617 17.0058 62.4155 17.1017 62.6238 17.2658C62.8321 17.4299 62.9847 17.6542 63.061 17.9081C63.331 18.8031 63.507 19.3851 63.624 19.7781H62.577C61.883 19.7781 61.286 20.3121 61.253 21.0061C61.2446 21.1805 61.2717 21.3548 61.3326 21.5184C61.3936 21.682 61.4871 21.8315 61.6075 21.9579C61.7279 22.0843 61.8727 22.1849 62.0332 22.2537C62.1936 22.3225 62.3664 22.358 62.541 22.3581H63.986C63.822 24.5831 62.416 26.5511 60.386 27.4081C60.516 23.1961 57.131 19.7781 53.002 19.7781C48.685 19.7781 45.24 23.4961 45.644 27.8641H38.359C38.789 23.2091 34.856 19.3331 30.228 19.8181V16.2751H37.962ZM27.65 16.2751V20.5831C26.3313 21.2558 25.2446 22.3085 24.5305 23.6052C23.8163 24.9019 23.5075 26.383 23.644 27.8571C22.659 27.798 21.7337 27.3653 21.0569 26.6472C20.38 25.9291 20.0028 24.9799 20.002 23.9931V22.3581H21.462C21.8041 22.3581 22.1322 22.2222 22.3741 21.9803C22.6161 21.7383 22.752 21.4102 22.752 21.0681C22.752 20.726 22.6161 20.3979 22.3741 20.1559C22.1322 19.914 21.8041 19.7781 21.462 19.7781H20.001V16.5651L20.004 16.2751H27.65ZM42.636 8.0791C45.286 8.0791 47.636 9.6711 48.62 12.1341L49.25 13.7131C49.2283 13.7119 49.2066 13.7106 49.185 13.7091L49.159 13.7071L49.125 13.7051L49.103 13.7031C49.0284 13.6991 48.9537 13.6971 48.879 13.6971L48.781 13.6961H48.742L48.606 13.6951H48.554L48.228 13.6941H40.211L38.528 8.0801L42.636 8.0791ZM29.004 8.0791L27.882 13.6951H20.738L22.208 8.9851C22.2898 8.72261 22.4534 8.49314 22.6748 8.33015C22.8963 8.16717 23.164 8.07921 23.439 8.0791H29.004ZM35.836 8.0791L37.519 13.6941H30.512L31.633 8.0791H35.836Z" fill="#26B5C0"/>
</g>
<defs>
<clipPath id="clip0_894_577">
<rect width="64" height="40" fill="white"/>
</clipPath>
</defs>
</svg>
