<svg width="64" height="40" viewBox="0 0 64 40" fill="none" xmlns="http://www.w3.org/2000/svg">
<g clip-path="url(#clip0_68_2888)">
<path opacity="0.201" d="M20 40C31.0457 40 40 31.0457 40 20C40 8.9543 31.0457 0 20 0C8.9543 0 0 8.9543 0 20C0 31.0457 8.9543 40 20 40Z" fill="black"/>
<path d="M52.936 24.11C54.878 24.11 56.453 25.652 56.453 27.555C56.453 29.458 54.878 31 52.936 31C50.994 31 49.42 29.458 49.42 27.555C49.42 25.652 50.994 24.11 52.936 24.11ZM30.979 24.11C32.921 24.11 34.496 25.652 34.496 27.555C34.496 29.458 32.921 31 30.979 31C29.037 31 27.463 29.458 27.463 27.555C27.463 25.652 29.037 24.11 30.979 24.11ZM37.927 19.262V20.691C37.927 21.407 38.537 21.984 39.275 21.95C39.6062 21.9321 39.9179 21.7878 40.1458 21.5468C40.3737 21.3059 40.5005 20.9867 40.5 20.655V19.262H48.756L62.239 20.575C63.195 20.668 63.915 21.456 63.915 22.389C63.915 25.279 61.789 27.692 58.989 28.208C59.386 24.651 56.531 21.588 52.936 21.588C49.29 21.588 46.432 24.728 46.897 28.311H37.018C37.484 24.723 34.621 21.589 30.979 21.589C27.384 21.589 24.529 24.651 24.927 28.209C22.787 27.811 21.011 26.297 20.317 24.278H21.459C22.19 24.278 22.779 23.68 22.744 22.956C22.711 22.278 22.115 21.756 21.422 21.756H20V21.505C20 20.231 21.066 19.262 22.306 19.262H37.926H37.927ZM42.59 11C45.235 11 47.58 12.556 48.562 14.963L49.288 16.742H40.17L38.413 11H42.591H42.59ZM35.725 11L37.483 16.741H26.505L29.862 13.087C30.4718 12.4278 31.2115 11.902 32.0345 11.5428C32.8575 11.1836 33.746 10.9988 34.644 11H35.726H35.725Z" fill="#FFD473"/>
</g>
<defs>
<clipPath id="clip0_68_2888">
<rect width="64" height="40" fill="white"/>
</clipPath>
</defs>
</svg>
